<?xml version="1.0" encoding="UTF-8" standalone="no"?>
<!-- Created with Inkscape (http://www.inkscape.org/) -->

<svg
   xmlns:dc="http://purl.org/dc/elements/1.1/"
   xmlns:cc="http://creativecommons.org/ns#"
   xmlns:rdf="http://www.w3.org/1999/02/22-rdf-syntax-ns#"
   xmlns:svg="http://www.w3.org/2000/svg"
   xmlns="http://www.w3.org/2000/svg"
   xmlns:sodipodi="http://sodipodi.sourceforge.net/DTD/sodipodi-0.dtd"
   xmlns:inkscape="http://www.inkscape.org/namespaces/inkscape"
   width="140"
   height="140"
   viewBox="0 0 37.041667 37.041668"
   version="1.1"
   id="svg8"
   inkscape:version="0.92.3 (2405546, 2018-03-11)"
   sodipodi:docname="Source.svg"
   inkscape:export-filename="C:\Users\kisel\ProjectHub\ThickMarker\favicon.png"
   inkscape:export-xdpi="96"
   inkscape:export-ydpi="96">
  <defs
     id="defs2" />
  <sodipodi:namedview
     id="base"
     pagecolor="#ffffff"
     bordercolor="#666666"
     borderopacity="1.0"
     inkscape:pageopacity="0.0"
     inkscape:pageshadow="2"
     inkscape:zoom="5.8571429"
     inkscape:cx="36.45122"
     inkscape:cy="70"
     inkscape:document-units="mm"
     inkscape:current-layer="layer1"
     showgrid="false"
     units="px"
     showguides="false"
     inkscape:window-width="1920"
     inkscape:window-height="1013"
     inkscape:window-x="-9"
     inkscape:window-y="-9"
     inkscape:window-maximized="1" />
  <metadata
     id="metadata5">
    <rdf:RDF>
      <cc:Work
         rdf:about="">
        <dc:format>image/svg+xml</dc:format>
        <dc:type
           rdf:resource="http://purl.org/dc/dcmitype/StillImage" />
        <dc:title></dc:title>
      </cc:Work>
    </rdf:RDF>
  </metadata>
  <g
     inkscape:label="Layer 1"
     inkscape:groupmode="layer"
     id="layer1"
     transform="translate(0,-259.95832)">
    <path
       style="fill:#000000;stroke-width:0.04524043"
       d="m 11.281453,287.4353 c -0.807976,-0.0664 -1.7502717,-0.31875 -2.3977433,-0.64199 -0.9498237,-0.47418 -2.10953,-1.55524 -2.5091939,-2.33904 -0.2660603,-0.52177 0.1035481,-1.13479 0.6837937,-1.13411 0.2874052,3.2e-4 0.4908057,0.14758 0.8121797,0.5879 0.7285858,0.99826 1.5967411,1.61379 2.6418758,1.87312 0.441291,0.10951 1.230442,0.17638 1.719137,0.14568 1.71799,-0.1079 2.828137,-0.96477 3.436123,-2.65217 0.294874,-0.81839 0.361296,-1.41923 0.45511,-4.11688 0.03764,-1.08238 0.08928,-2.18172 0.114752,-2.44298 0.102943,-1.05584 0.308022,-1.95432 0.607306,-2.66067 0.129401,-0.30541 0.179367,-0.47202 0.144687,-0.48249 -0.02914,-0.008 -0.246377,-0.0607 -0.482758,-0.11538 -0.692428,-0.16014 -1.45038,-0.37766 -3.302551,-0.94773 -3.8448514,-1.18339 -4.9063027,-1.43395 -6.2657998,-1.47904 -1.1608228,-0.0385 -1.9508695,0.12477 -2.8491165,0.58879 -0.3729309,0.19265 -0.5272199,0.30786 -0.8878033,0.66296 -0.3772843,0.37154 -0.4650086,0.48803 -0.6473161,0.85956 -0.2722889,0.55492 -0.3406645,0.81606 -0.3740069,1.42836 -0.032843,0.60312 0.048404,1.03833 0.2802377,1.50112 0.8545913,1.70595 3.2594876,1.96462 4.8596841,0.52271 0.3861022,-0.34791 0.7486029,-0.845 1.059649,-1.4531 0.2725632,-0.53285 0.4342366,-0.71092 0.6888321,-0.75868 0.4924172,-0.0924 0.9235689,0.23693 0.9235689,0.70541 0,0.25335 -0.1742947,0.70082 -0.4493134,1.1535 -0.7833336,1.2894 -1.6918053,2.08931 -2.8549697,2.51382 -0.6348612,0.23169 -0.9465927,0.2828 -1.7174046,0.28159 -0.6077476,-9.4e-4 -0.7615357,-0.0168 -1.1536309,-0.11912 -2.1567451,-0.56265 -3.45015705,-2.54358 -3.14123455,-4.81097 0.16464448,-1.20844 0.68362455,-2.22291 1.55046625,-3.03076 1.625056,-1.51446 4.0499182,-1.94444 7.1034562,-1.25959 1.0342105,0.23196 1.7282015,0.43472 4.1009035,1.19812 2.012999,0.64766 3.226576,0.98741 4.118178,1.15289 l 0.385842,0.0717 0.474052,-0.46458 c 0.260729,-0.25551 0.62236,-0.56546 0.803625,-0.68875 0.291545,-0.19832 0.361977,-0.22618 0.610419,-0.24148 0.237469,-0.0147 0.304661,-9.3e-4 0.435029,0.0885 0.2278,0.15625 0.330924,0.32127 0.354574,0.56739 0.03149,0.32775 -0.06697,0.51621 -0.390158,0.74675 -0.149633,0.10673 -0.273158,0.21205 -0.2745,0.23405 -0.0038,0.0628 1.825727,-9.4e-4 2.283552,-0.08 1.141911,-0.19635 1.882742,-0.53557 2.532114,-1.15945 0.385169,-0.37004 0.46828,-0.41566 0.753335,-0.41345 0.430665,0.004 0.71698,0.31856 0.71698,0.78937 0,0.22184 -0.01956,0.27451 -0.174116,0.46887 -1.127072,1.41733 -3.513286,2.14217 -6.296042,1.91251 -0.41013,-0.0338 -0.836221,-0.0623 -0.946868,-0.0632 l -0.201178,-0.002 -0.196305,0.38455 c -0.2238,0.43841 -0.384002,0.9296 -0.51203,1.56994 -0.09229,0.46159 -0.133626,1.19005 -0.225389,3.97201 -0.05311,1.6102 -0.08825,2.03296 -0.229352,2.75967 -0.40835,2.10305 -1.468011,3.59598 -3.081492,4.34145 -0.858884,0.39684 -1.96769,0.56738 -3.08919,0.47513 z m 15.721048,-0.29671 c -0.240486,-0.10401 -0.442006,-0.32573 -0.526069,-0.57882 -0.08183,-0.24636 -0.07813,-0.59449 0.03073,-2.89377 0.02692,-0.56857 0.03711,-1.04558 0.02265,-1.06005 -0.04779,-0.0478 -0.34361,0.27875 -0.564834,0.6235 -0.336553,0.52449 -0.878451,1.48012 -1.340965,2.36479 -0.475024,0.90858 -0.621103,1.11517 -0.906996,1.28272 -0.282765,0.16571 -0.49226,0.20565 -0.777554,0.14824 -0.391681,-0.0788 -0.667975,-0.38004 -0.73348,-0.79968 -0.0166,-0.10635 0.0023,-0.94419 0.04198,-1.86185 0.03969,-0.91765 0.05922,-1.66046 0.04338,-1.65068 -0.01582,0.01 -0.115688,0.21651 -0.22191,0.4594 -0.24733,0.56553 -0.288433,0.62591 -0.51748,0.76014 -0.519041,0.30418 -1.133943,-0.0571 -1.127736,-0.66248 0.0017,-0.16207 0.06961,-0.34721 0.306486,-0.83513 0.686953,-1.41498 1.203037,-1.9335 1.928723,-1.93784 0.520567,-0.003 0.894109,0.29557 1.084744,0.86735 0.09465,0.28388 0.101011,0.37652 0.09514,1.38517 -0.0035,0.59451 -0.01886,1.10347 -0.03422,1.131 -0.01852,0.0333 -0.01302,0.0349 0.01632,0.005 0.02434,-0.0248 0.203335,-0.32008 0.397785,-0.65599 0.716993,-1.2386 1.118623,-1.72422 1.623542,-1.96309 0.658798,-0.31166 1.206273,-0.26617 1.655281,0.13752 0.424736,0.38188 0.55126,0.77666 0.548825,1.71247 l -0.0017,0.63337 0.229748,-0.42978 c 0.338604,-0.63343 0.696493,-1.15318 1.051053,-1.52645 0.247566,-0.26062 0.39621,-0.37148 0.699838,-0.52193 0.372141,-0.18441 0.400533,-0.19103 0.818705,-0.19103 0.383098,0 0.463091,0.0147 0.691719,0.12695 0.316774,0.15556 0.58672,0.45251 0.721625,0.79383 0.08822,0.22318 0.101223,0.34126 0.102914,0.93408 10e-4,0.37323 -0.01602,0.96362 -0.03797,1.31198 -0.0615,0.97629 0.03448,1.28935 0.395321,1.28935 0.578666,0 1.297112,-0.76947 2.056445,-2.2025 0.166831,-0.31485 0.3558,-0.61108 0.419931,-0.65829 0.265053,-0.19514 0.662183,-0.18717 0.923705,0.0185 0.14914,0.11731 0.291916,0.41302 0.293292,0.60745 0.0024,0.34307 -0.862508,1.81473 -1.478963,2.51642 -0.944727,1.07535 -2.008796,1.4789 -2.960563,1.1228 -0.707584,-0.26475 -1.067371,-0.83222 -1.170515,-1.84623 -0.04813,-0.47317 -0.03997,-0.73573 0.05281,-1.70045 0.05383,-0.55963 0.02793,-0.79838 -0.08657,-0.79838 -0.04187,0 -0.188543,0.12042 -0.325943,0.2676 -0.385141,0.41256 -0.699376,0.94193 -1.808266,3.04626 -0.20651,0.39189 -0.458687,0.80706 -0.560393,0.92261 -0.307307,0.34912 -0.706882,0.46334 -1.070609,0.30603 z"
       id="path3726"
       inkscape:connector-curvature="0" />
  </g>
</svg>
